<?xml version="1.0" encoding="UTF-8"?>
<svg width="128px" height="48px" viewBox="0 0 128 48" version="1.1" xmlns="http://www.w3.org/2000/svg" xmlns:xlink="http://www.w3.org/1999/xlink">
    <!-- Generator: Sketch 51.1 (57501) - http://www.bohemiancoding.com/sketch -->
    <title>logo-viberate-beta</title>
    <desc>Created with Sketch.</desc>
    <defs></defs>
    <g id="Page-1" stroke="none" stroke-width="1" fill="none" fill-rule="evenodd">
        <g id="logo-viberate-beta" fill-rule="nonzero">
            <polygon id="Shape" fill="#FF1F43" points="0 48 128 48 128 0 0 0"></polygon>
            <g id="Group" transform="translate(14.000000, 16.000000)" fill="#FFFFFF">
                <path d="M15.9,15.5 L18.6,15.5 L18.6,0.5 L15.9,0.5 L15.9,15.5 Z M33.3,11.1 C33.3,9.7 32.5,8.4 31.1,7.7 C32.4,7.2 33,5.8 33,4.6 C33,3.3 32.3,2 31.2,1.3 C30.2,0.6 29,0.5 27.7,0.5 L21.8,0.5 L21.8,15.5 L27.7,15.5 C29.2,15.5 30.6,15.4 31.8,14.5 C32.8,13.7 33.3,12.5 33.3,11.1 Z M30.2,4.7 C30.2,6.2 29.1,6.6 27.9,6.6 L24.5,6.6 L24.5,2.8 L27.9,2.8 C29.1,2.8 30.2,3.3 30.2,4.7 Z M30.5,11.1 C30.5,12.6 29.1,13.1 27.9,13.1 L24.5,13.1 L24.5,8.9 L27.9,8.9 C29.4,8.9 30.5,9.5 30.5,11.1 Z M46.4,15.5 L46.4,13 L38.4,13 L38.4,8.9 L45.4,8.9 L45.4,6.5 L38.4,6.5 L38.4,3 L46.4,3 L46.4,0.5 L35.7,0.5 L35.7,15.5 L46.4,15.5 Z M60.8,15.5 L58,9.4 C59.7,8.7 60.8,7.2 60.8,5.1 C60.8,2.7 59.1,0.5 55.5,0.5 L49.2,0.5 L49.2,15.5 L52,15.5 L52,9.8 L55.3,9.8 L57.8,15.5 L60.8,15.5 Z M58,5.1 C58,6.6 57.1,7.4 55.6,7.4 L51.9,7.4 L51.9,2.9 L55.5,2.9 C57.1,2.9 58,3.9 58,5.1 Z" id="Shape"></path>
                <path d="M86.7,3 L86.7,0.5 L75.8,0.5 L75.8,3 L79.9,3 L79.9,15.5 L82.6,15.5 L82.6,3 L86.7,3 Z M99.5,15.5 L99.5,13 L91.6,13 L91.6,8.9 L98.6,8.9 L98.6,6.5 L91.6,6.5 L91.6,3 L99.5,3 L99.5,0.5 L88.8,0.5 L88.8,15.5 L99.5,15.5 Z" id="Shape"></path>
                <polygon id="Shape" points="73.8 15.5 71 15.5 71 3.9 64.5 15.5 61.6 15.5 69.8 0.5 73.8 0.5"></polygon>
                <polygon id="Shape" points="13 0.5 10.2 0.5 10.2 12.2 3.8 0.5 0.8 0.5 9 15.5 13 15.5"></polygon>
            </g>
        </g>
    </g>
</svg>